<svg width="171" height="36" viewBox="0 0 171 36" fill="none" xmlns="http://www.w3.org/2000/svg">
<path d="M1.87816 2.05745H8.94269C9.60432 2.05745 9.96715 1.69316 9.96715 1.02888C9.96715 0.364591 9.60432 0.000305176 8.94269 0.000305176H1.87816C1.21653 0.000305176 0.853699 0.364591 0.853699 1.02888C0.853699 1.69316 1.21653 2.05745 1.87816 2.05745Z" fill="currentColor"/>
<path d="M1.87816 4.88563H8.94269C9.60432 4.88563 9.96715 4.52135 9.96715 3.85706C9.96715 3.19278 9.60432 2.82849 8.94269 2.82849H1.87816C1.21653 2.82849 0.853699 3.19278 0.853699 3.85706C0.853699 4.52135 1.21653 4.88563 1.87816 4.88563Z" fill="currentColor"/>
<path d="M1.87816 7.71435H8.94269C9.60432 7.71435 9.96715 7.35007 9.96715 6.68578C9.96715 6.0215 9.60432 5.65721 8.94269 5.65721H1.87816C1.21653 5.65721 0.853699 6.0215 0.853699 6.68578C0.853699 7.35007 1.21653 7.71435 1.87816 7.71435Z" fill="currentColor"/>
<path d="M1.87816 10.5431H8.94269C9.60432 10.5431 9.96715 10.1788 9.96715 9.5145C9.96715 8.85022 9.60432 8.48593 8.94269 8.48593H1.87816C1.21653 8.48593 0.853699 8.85022 0.853699 9.5145C0.853699 10.1788 1.21653 10.5431 1.87816 10.5431Z" fill="currentColor"/>
<path d="M1.87816 13.3718H11.0556C11.7173 13.3718 12.0801 13.0075 12.0801 12.3432C12.0801 11.6789 11.7173 11.3147 11.0556 11.3147H1.87816C1.21653 11.3147 0.853699 11.6789 0.853699 12.3432C0.853699 13.0075 1.21653 13.3718 1.87816 13.3718Z" fill="currentColor"/>
<path d="M8.08917 16.2C8.75081 16.2 9.11364 15.8357 9.11364 15.1714C9.11364 14.5071 8.75081 14.1428 8.08917 14.1428H1.02465C0.363014 14.1428 0.000183105 14.5071 0.000183105 15.1714C0.000183105 15.8357 0.363014 16.2 1.02465 16.2H8.08917Z" fill="currentColor"/>
<path d="M1.87816 19.0287H8.94269C9.60432 19.0287 9.96715 18.6644 9.96715 18.0001C9.96715 17.3358 9.60432 16.9716 8.94269 16.9716H1.87816C1.21653 16.9716 0.853699 17.3358 0.853699 18.0001C0.853699 18.6644 1.21653 19.0287 1.87816 19.0287Z" fill="currentColor"/>
<path d="M10.9707 20.8289C10.9707 20.1646 10.6079 19.8003 9.94623 19.8003H2.8817C2.22007 19.8003 1.85724 20.1646 1.85724 20.8289C1.85724 21.4931 2.22007 21.8574 2.8817 21.8574H9.94623C10.6079 21.8574 10.9707 21.4931 10.9707 20.8289Z" fill="currentColor"/>
<path d="M1.87816 24.6861H8.94269C9.60432 24.6861 9.96715 24.3219 9.96715 23.6576C9.96715 22.9933 9.60432 22.629 8.94269 22.629H1.87816C1.21653 22.629 0.853699 22.9933 0.853699 23.6576C0.853699 24.3219 1.21653 24.6861 1.87816 24.6861Z" fill="currentColor"/>
<path d="M10.4794 26.4858C10.4794 25.8215 10.1166 25.4572 9.45492 25.4572H1.87816C1.21653 25.4572 0.853699 25.8215 0.853699 26.4858C0.853699 27.1501 1.21653 27.5143 1.87816 27.5143H9.45492C10.1166 27.5143 10.4794 27.1501 10.4794 26.4858Z" fill="currentColor"/>
<path d="M5.42139 29.3145C5.42139 29.9788 5.78422 30.343 6.44585 30.343H41.0642C41.7258 30.343 42.0886 29.9788 42.0886 29.3145C42.0886 28.6502 41.7258 28.2859 41.0642 28.2859H6.44585C5.78422 28.2859 5.42139 28.6502 5.42139 29.3145Z" fill="currentColor"/>
<path d="M34.6186 32.1432C34.6186 31.4789 34.2558 31.1146 33.5941 31.1146H4.29021C3.62858 31.1146 3.26575 31.4789 3.26575 32.1432C3.26575 32.8075 3.62858 33.1718 4.29021 33.1718H33.5941C34.2558 33.1718 34.6186 32.8075 34.6186 32.1432Z" fill="currentColor"/>
<path d="M29.7525 33.9428H8.13201C7.47037 33.9428 7.10754 34.3071 7.10754 34.9714C7.10754 35.6357 7.47037 36 8.13201 36H29.7525C30.4141 36 30.7769 35.6357 30.7769 34.9714C30.7769 34.3071 30.4141 33.9428 29.7525 33.9428Z" fill="currentColor"/>
<path d="M27.3407 26.4858C27.3407 27.1501 27.7035 27.5143 28.3652 27.5143H35.9419C36.6036 27.5143 36.9664 27.1501 36.9664 26.4858C36.9664 25.8215 36.6036 25.4572 35.9419 25.4572H28.3652C27.7035 25.4572 27.3407 25.8215 27.3407 26.4858Z" fill="currentColor"/>
<path d="M28.9842 2.05745H41.2351C41.8967 2.05745 42.2595 1.69316 42.2595 1.02888C42.2595 0.364591 41.8967 0.000305176 41.2351 0.000305176H28.9842C28.3225 0.000305176 27.9597 0.364591 27.9597 1.02888C27.9597 1.69316 28.3225 2.05745 28.9842 2.05745Z" fill="currentColor"/>
<path d="M28.9842 4.88563H43.4334C44.095 4.88563 44.4578 4.52135 44.4578 3.85706C44.4578 3.19278 44.095 2.82849 43.4334 2.82849H28.9842C28.3225 2.82849 27.9597 3.19278 27.9597 3.85706C27.9597 4.52135 28.3225 4.88563 28.9842 4.88563Z" fill="currentColor"/>
<path d="M28.9842 7.71435H36.0487C36.7103 7.71435 37.0732 7.35007 37.0732 6.68578C37.0732 6.0215 36.7103 5.65721 36.0487 5.65721H28.9842C28.3225 5.65721 27.9597 6.0215 27.9597 6.68578C27.9597 7.35007 28.3225 7.71435 28.9842 7.71435Z" fill="currentColor"/>
<path d="M28.9842 10.5431H47.8514C48.513 10.5431 48.8758 10.1788 48.8758 9.5145C48.8758 8.85022 48.513 8.48593 47.8514 8.48593H28.9842C28.3225 8.48593 27.9597 8.85022 27.9597 9.5145C27.9597 10.1788 28.3225 10.5431 28.9842 10.5431Z" fill="currentColor"/>
<path d="M28.9842 13.3718H50.0497C50.7113 13.3718 51.0742 13.0075 51.0742 12.3432C51.0742 11.6789 50.7113 11.3147 50.0497 11.3147H28.9842C28.3225 11.3147 27.9597 11.6789 27.9597 12.3432C27.9597 13.0075 28.3225 13.3718 28.9842 13.3718Z" fill="currentColor"/>
<path d="M28.9842 16.2H41.0857C41.7473 16.2 42.1101 15.8357 42.1101 15.1714C42.1101 14.5071 41.7473 14.1428 41.0857 14.1428H28.9842C28.3225 14.1428 27.9597 14.5071 27.9597 15.1714C27.9597 15.8357 28.3225 16.2 28.9842 16.2Z" fill="currentColor"/>
<path d="M28.9842 19.0287H41.0857C41.7473 19.0287 42.1101 18.6644 42.1101 18.0001C42.1101 17.3358 41.7473 16.9716 41.0857 16.9716H28.9842C28.3225 16.9716 27.9597 17.3358 27.9597 18.0001C27.9597 18.6644 28.3225 19.0287 28.9842 19.0287Z" fill="currentColor"/>
<path d="M25.2278 21.8574H30.9263C31.588 21.8574 31.9508 21.4931 31.9508 20.8289C31.9508 20.1646 31.588 19.8003 30.9263 19.8003H25.2278C24.5661 19.8003 24.2033 20.1646 24.2033 20.8289C24.2033 21.4931 24.5661 21.8574 25.2278 21.8574Z" fill="currentColor"/>
<path d="M27.9597 23.6576C27.9597 24.3219 28.3225 24.6861 28.9842 24.6861H41.0857C41.7473 24.6861 42.1101 24.3219 42.1101 23.6576C42.1101 22.9933 41.7473 22.629 41.0857 22.629H28.9842C28.3225 22.629 27.9597 22.9933 27.9597 23.6576Z" fill="currentColor"/>
<path d="M38.268 6.68578C38.268 7.35007 38.6308 7.71435 39.2925 7.71435H50.9244C51.586 7.71435 51.9489 7.35007 51.9489 6.68578C51.9489 6.0215 51.586 5.65721 50.9244 5.65721H39.2925C38.6308 5.65721 38.268 6.0215 38.268 6.68578Z" fill="currentColor"/>
<path d="M41.0853 21.8574C41.747 21.8574 42.1098 21.4931 42.1098 20.8289C42.1098 20.1646 41.747 19.8003 41.0853 19.8003H34.0208C33.3592 19.8003 32.9963 20.1646 32.9963 20.8289C32.9963 21.4931 33.3592 21.8574 34.0208 21.8574H41.0853Z" fill="currentColor"/>
<path d="M44.2871 26.4858C44.2871 25.8215 43.9242 25.4572 43.2626 25.4572H39.1221C38.4604 25.4572 38.0976 25.8215 38.0976 26.4858C38.0976 27.1501 38.4604 27.5143 39.1221 27.5143H43.2626C43.9242 27.5143 44.2871 27.1501 44.2871 26.4858Z" fill="currentColor"/>
<path d="M43.9455 31.1146H36.881C36.2193 31.1146 35.8565 31.4789 35.8565 32.1432C35.8565 32.8075 36.2193 33.1718 36.881 33.1718H43.9455C44.6071 33.1718 44.97 32.8075 44.97 32.1432C44.97 31.4789 44.6071 31.1146 43.9455 31.1146Z" fill="currentColor"/>
<path d="M41.0853 33.9428H34.0208C33.3592 33.9428 32.9963 34.3071 32.9963 34.9714C32.9963 35.6357 33.3592 36 34.0208 36H41.0853C41.747 36 42.1098 35.6357 42.1098 34.9714C42.1098 34.3071 41.747 33.9428 41.0853 33.9428Z" fill="currentColor"/>
<path d="M43.3906 15.1714C43.3906 15.8357 43.7535 16.2 44.4151 16.2H52.248C52.9096 16.2 53.2724 15.8357 53.2724 15.1714C53.2724 14.5071 52.9096 14.1428 52.248 14.1428H44.4151C43.7535 14.1428 43.3906 14.5071 43.3906 15.1714Z" fill="currentColor"/>
<path d="M55.4708 18.0001C55.4708 17.3358 55.108 16.9716 54.4464 16.9716H46.6135C45.9519 16.9716 45.5891 17.3358 45.5891 18.0001C45.5891 18.6644 45.9519 19.0287 46.6135 19.0287H54.4464C55.108 19.0287 55.4708 18.6644 55.4708 18.0001Z" fill="currentColor"/>
<path d="M57.6687 20.8289C57.6687 20.1646 57.3058 19.8003 56.6442 19.8003H48.8113C48.1497 19.8003 47.7869 20.1646 47.7869 20.8289C47.7869 21.4931 48.1497 21.8574 48.8113 21.8574H56.6442C57.3058 21.8574 57.6687 21.4931 57.6687 20.8289Z" fill="currentColor"/>
<path d="M68.0628 23.6576C68.0628 22.9933 67.7 22.629 67.0383 22.629H51.0098C50.3481 22.629 49.9853 22.9933 49.9853 23.6576C49.9853 24.3219 50.3481 24.6861 51.0098 24.6861H67.0383C67.7 24.6861 68.0628 24.3219 68.0628 23.6576Z" fill="currentColor"/>
<path d="M68.0629 26.4858C68.0629 25.8215 67.7 25.4572 67.0384 25.4572H53.2508C52.5892 25.4572 52.2264 25.8215 52.2264 26.4858C52.2264 27.1501 52.5892 27.5143 53.2508 27.5143H67.0384C67.7 27.5143 68.0629 27.1501 68.0629 26.4858Z" fill="currentColor"/>
<path d="M67.0386 31.1146H57.669C57.0074 31.1146 56.6445 31.4789 56.6445 32.1432C56.6445 32.8075 57.0074 33.1718 57.669 33.1718H67.0386C67.7002 33.1718 68.063 32.8075 68.063 32.1432C68.063 31.4789 67.7002 31.1146 67.0386 31.1146Z" fill="currentColor"/>
<path d="M67.0387 33.9428H59.8674C59.2058 33.9428 58.843 34.3071 58.843 34.9714C58.843 35.6357 59.2058 36 59.8674 36H67.0387C67.7003 36 68.0631 35.6357 68.0631 34.9714C68.0631 34.3071 67.7003 33.9428 67.0387 33.9428Z" fill="currentColor"/>
<path d="M59.9742 2.05745H67.0388C67.7004 2.05745 68.0632 1.69316 68.0632 1.02888C68.0632 0.364591 67.7004 0.000305176 67.0388 0.000305176H59.9742C59.3126 0.000305176 58.9498 0.364591 58.9498 1.02888C58.9498 1.69316 59.3126 2.05745 59.9742 2.05745Z" fill="currentColor"/>
<path d="M59.9742 4.88563H67.0388C67.7004 4.88563 68.0632 4.52135 68.0632 3.85706C68.0632 3.19278 67.7004 2.82849 67.0388 2.82849H59.9742C59.3126 2.82849 58.9498 3.19278 58.9498 3.85706C58.9498 4.52135 59.3126 4.88563 59.9742 4.88563Z" fill="currentColor"/>
<path d="M59.9742 7.71435H67.0388C67.7004 7.71435 68.0632 7.35007 68.0632 6.68578C68.0632 6.0215 67.7004 5.65721 67.0388 5.65721H59.9742C59.3126 5.65721 58.9498 6.0215 58.9498 6.68578C58.9498 7.35007 59.3126 7.71435 59.9742 7.71435Z" fill="currentColor"/>
<path d="M59.9742 10.5431H85.5218C86.1834 10.5431 86.5462 10.1788 86.5462 9.5145C86.5462 8.85022 86.1834 8.48593 85.5218 8.48593H59.9742C59.3126 8.48593 58.9498 8.85022 58.9498 9.5145C58.9498 10.1788 59.3126 10.5431 59.9742 10.5431Z" fill="currentColor"/>
<path d="M59.9742 13.3718H67.0388C67.7004 13.3718 68.0632 13.0075 68.0632 12.3432C68.0632 11.6789 67.7004 11.3147 67.0388 11.3147H59.9742C59.3126 11.3147 58.9498 11.6789 58.9498 12.3432C58.9498 13.0075 59.3126 13.3718 59.9742 13.3718Z" fill="currentColor"/>
<path d="M59.9742 16.2H67.0388C67.7004 16.2 68.0632 15.8357 68.0632 15.1714C68.0632 14.5071 67.7004 14.1428 67.0388 14.1428H59.9742C59.3126 14.1428 58.9498 14.5071 58.9498 15.1714C58.9498 15.8357 59.3126 16.2 59.9742 16.2Z" fill="currentColor"/>
<path d="M59.9742 19.0287H77.134C77.7956 19.0287 78.1584 18.6644 78.1584 18.0001C78.1584 17.3358 77.7956 16.9716 77.134 16.9716H59.9742C59.3126 16.9716 58.9498 17.3358 58.9498 18.0001C58.9498 18.6644 59.3126 19.0287 59.9742 19.0287Z" fill="currentColor"/>
<path d="M59.9742 21.8574H67.0388C67.7004 21.8574 68.0632 21.4931 68.0632 20.8289C68.0632 20.1646 67.7004 19.8003 67.0388 19.8003H59.9742C59.3126 19.8003 58.9498 20.1646 58.9498 20.8289C58.9498 21.4931 59.3126 21.8574 59.9742 21.8574Z" fill="currentColor"/>
<path d="M70.133 2.05745H77.1548C77.8165 2.05745 78.1793 1.69316 78.1793 1.02888C78.1793 0.364591 77.8165 0.000305176 77.1548 0.000305176H70.133C69.4714 0.000305176 69.1085 0.364591 69.1085 1.02888C69.1085 1.69316 69.4714 2.05745 70.133 2.05745Z" fill="currentColor"/>
<path d="M70.133 4.88563H77.1548C77.8165 4.88563 78.1793 4.52135 78.1793 3.85706C78.1793 3.19278 77.8165 2.82849 77.1548 2.82849H70.133C69.4714 2.82849 69.1085 3.19278 69.1085 3.85706C69.1085 4.52135 69.4714 4.88563 70.133 4.88563Z" fill="currentColor"/>
<path d="M70.133 7.71435H75.8529C76.5145 7.71435 76.8774 7.35007 76.8774 6.68578C76.8774 6.0215 76.5145 5.65721 75.8529 5.65721H70.133C69.4714 5.65721 69.1085 6.0215 69.1085 6.68578C69.1085 7.35007 69.4714 7.71435 70.133 7.71435Z" fill="currentColor"/>
<path d="M70.133 13.3718H84.817C85.4786 13.3718 85.8414 13.0075 85.8414 12.3432C85.8414 11.6789 85.4786 11.3147 84.817 11.3147H70.133C69.4714 11.3147 69.1085 11.6789 69.1085 12.3432C69.1085 13.0075 69.4714 13.3718 70.133 13.3718Z" fill="currentColor"/>
<path d="M70.133 16.2H84.817C85.4786 16.2 85.8414 15.8357 85.8414 15.1714C85.8414 14.5071 85.4786 14.1428 84.817 14.1428H70.133C69.4714 14.1428 69.1085 14.5071 69.1085 15.1714C69.1085 15.8357 69.4714 16.2 70.133 16.2Z" fill="currentColor"/>
<path d="M70.133 25.4572C69.4714 25.4572 69.1085 25.8215 69.1085 26.4858C69.1085 27.1501 69.4714 27.5143 70.133 27.5143H77.1548C77.8165 27.5143 78.1793 27.1501 78.1793 26.4858C78.1793 25.8215 77.8165 25.4572 77.1548 25.4572H70.133Z" fill="currentColor"/>
<path d="M77.134 31.1146H70.1121C69.4505 31.1146 69.0876 31.4789 69.0876 32.1432C69.0876 32.8075 69.4505 33.1718 70.1121 33.1718H77.134C77.7956 33.1718 78.1584 32.8075 78.1584 32.1432C78.1584 31.4789 77.7956 31.1146 77.134 31.1146Z" fill="currentColor"/>
<path d="M77.134 33.9428H70.1121C69.4505 33.9428 69.0876 34.3071 69.0876 34.9714C69.0876 35.6357 69.4505 36 70.1121 36H77.134C77.7956 36 78.1584 35.6357 78.1584 34.9714C78.1584 34.3071 77.7956 33.9428 77.134 33.9428Z" fill="currentColor"/>
<path d="M79.7587 19.0287H83.515C84.1767 19.0287 84.5395 18.6644 84.5395 18.0001C84.5395 17.3358 84.1767 16.9716 83.515 16.9716H79.7587C79.097 16.9716 78.7342 17.3358 78.7342 18.0001C78.7342 18.6644 79.097 19.0287 79.7587 19.0287Z" fill="currentColor"/>
<path d="M76.8988 19.8003H71.7978C71.1361 19.8003 70.7733 20.1646 70.7733 20.8289C70.7733 21.4931 71.1361 21.8574 71.7978 21.8574H83.9846C84.6463 21.8574 85.0091 21.4931 85.0091 20.8289C85.0091 20.1646 84.6463 19.8003 83.9846 19.8003H76.9201H76.8988Z" fill="currentColor"/>
<path d="M85.8414 23.6576C85.8414 22.9933 85.4786 22.629 84.817 22.629H70.133C69.4714 22.629 69.1085 22.9933 69.1085 23.6576C69.1085 24.3219 69.4714 24.6861 70.133 24.6861H84.817C85.4786 24.6861 85.8414 24.3219 85.8414 23.6576Z" fill="currentColor"/>
<path d="M79.9083 27.5143H87.485C88.1466 27.5143 88.5095 27.1501 88.5095 26.4858C88.5095 25.8215 88.1466 25.4572 87.485 25.4572H79.9083C79.2466 25.4572 78.8838 25.8215 78.8838 26.4858C78.8838 27.1501 79.2466 27.5143 79.9083 27.5143Z" fill="currentColor"/>
<path d="M77.6884 6.68578C77.6884 7.35007 78.0512 7.71435 78.7129 7.71435H108.337C108.999 7.71435 109.361 7.35007 109.361 6.68578C109.361 6.0215 108.999 5.65721 108.337 5.65721H78.7129C78.0512 5.65721 77.6884 6.0215 77.6884 6.68578Z" fill="currentColor"/>
<path d="M80.3564 4.88563H108.849C109.511 4.88563 109.874 4.52135 109.874 3.85706C109.874 3.19278 109.511 2.82849 108.849 2.82849H80.3564C79.6947 2.82849 79.3319 3.19278 79.3319 3.85706C79.3319 4.52135 79.6947 4.88563 80.3564 4.88563Z" fill="currentColor"/>
<path d="M106.864 31.1146H80.3564C79.6947 31.1146 79.3319 31.4789 79.3319 32.1432C79.3319 32.8075 79.6947 33.1718 80.3564 33.1718H106.864C107.526 33.1718 107.889 32.8075 107.889 32.1432C107.889 31.4789 107.526 31.1146 106.864 31.1146Z" fill="currentColor"/>
<path d="M84.1982 2.05745H104.986C105.648 2.05745 106.011 1.69316 106.011 1.02888C106.011 0.364591 105.648 0.000305176 104.986 0.000305176H84.1982C83.5365 0.000305176 83.1737 0.364591 83.1737 1.02888C83.1737 1.69316 83.5365 2.05745 84.1982 2.05745Z" fill="currentColor"/>
<path d="M105.008 33.9428H84.2195C83.5579 33.9428 83.1951 34.3071 83.1951 34.9714C83.1951 35.6357 83.5579 36 84.2195 36H105.008C105.669 36 106.032 35.6357 106.032 34.9714C106.032 34.3071 105.669 33.9428 105.008 33.9428Z" fill="currentColor"/>
<path d="M103.621 27.5143H111.197C111.859 27.5143 112.222 27.1501 112.222 26.4858C112.222 25.8215 111.859 25.4572 111.197 25.4572H103.621C102.959 25.4572 102.596 25.8215 102.596 26.4858C102.596 27.1501 102.959 27.5143 103.621 27.5143Z" fill="currentColor"/>
<path d="M110.194 13.3718C110.856 13.3718 111.219 13.0075 111.219 12.3432C111.219 11.6789 110.856 11.3147 110.194 11.3147H103.13C102.468 11.3147 102.105 11.6789 102.105 12.3432C102.105 13.0075 102.468 13.3718 103.13 13.3718H110.194Z" fill="currentColor"/>
<path d="M112.542 2.05745H144.578C145.239 2.05745 145.602 1.69316 145.602 1.02888C145.602 0.364591 145.239 0.000305176 144.578 0.000305176H112.542C111.88 0.000305176 111.517 0.364591 111.517 1.02888C111.517 1.69316 111.88 2.05745 112.542 2.05745Z" fill="currentColor"/>
<path d="M112.542 4.88563H121.015C121.677 4.88563 122.039 4.52135 122.039 3.85706C122.039 3.19278 121.677 2.82849 121.015 2.82849H112.542C111.88 2.82849 111.517 3.19278 111.517 3.85706C111.517 4.52135 111.88 4.88563 112.542 4.88563Z" fill="currentColor"/>
<path d="M118.475 8.48593H111.453C111.453 8.48593 111.368 8.48593 111.325 8.48593C111.283 8.48593 111.24 8.48593 111.197 8.48593H103.621C102.959 8.48593 102.596 8.85022 102.596 9.5145C102.596 10.1788 102.959 10.5431 103.621 10.5431H111.197C111.197 10.5431 111.283 10.5431 111.325 10.5431C111.368 10.5431 111.411 10.5431 111.453 10.5431H118.475C119.137 10.5431 119.5 10.1788 119.5 9.5145C119.5 8.85022 119.137 8.48593 118.475 8.48593Z" fill="currentColor"/>
<path d="M120.951 12.3432C120.951 11.6789 120.588 11.3147 119.926 11.3147H112.904C112.243 11.3147 111.88 11.6789 111.88 12.3432C111.88 13.0075 112.243 13.3718 112.904 13.3718H119.926C120.588 13.3718 120.951 13.0075 120.951 12.3432Z" fill="currentColor"/>
<path d="M119.564 14.1428H112.542C111.88 14.1428 111.517 14.5071 111.517 15.1714C111.517 15.8357 111.88 16.2 112.542 16.2H119.564C120.225 16.2 120.588 15.8357 120.588 15.1714C120.588 14.5071 120.225 14.1428 119.564 14.1428Z" fill="currentColor"/>
<path d="M119.564 16.9716H112.542C111.88 16.9716 111.517 17.3358 111.517 18.0001C111.517 18.6644 111.88 19.0287 112.542 19.0287H119.564C120.225 19.0287 120.588 18.6644 120.588 18.0001C120.588 17.3358 120.225 16.9716 119.564 16.9716Z" fill="currentColor"/>
<path d="M120.588 20.8289C120.588 20.1646 120.225 19.8003 119.564 19.8003H112.542C111.88 19.8003 111.517 20.1646 111.517 20.8289C111.517 21.4931 111.88 21.8574 112.542 21.8574H119.564C120.225 21.8574 120.588 21.4931 120.588 20.8289Z" fill="currentColor"/>
<path d="M119.841 23.6576C119.841 22.9933 119.478 22.629 118.816 22.629H111.795C111.795 22.629 111.667 22.629 111.602 22.6504C111.538 22.6504 111.474 22.629 111.41 22.629H104.346C103.684 22.629 103.321 22.9933 103.321 23.6576C103.321 24.3219 103.684 24.6861 104.346 24.6861H111.41C111.41 24.6861 111.538 24.6861 111.602 24.6647C111.667 24.6647 111.731 24.6861 111.795 24.6861H118.816C119.478 24.6861 119.841 24.3219 119.841 23.6576Z" fill="currentColor"/>
<path d="M120.972 25.4572H113.95C113.289 25.4572 112.926 25.8215 112.926 26.4858C112.926 27.1501 113.289 27.5143 113.95 27.5143H120.972C121.634 27.5143 121.996 27.1501 121.996 26.4858C121.996 25.8215 121.634 25.4572 120.972 25.4572Z" fill="currentColor"/>
<path d="M117.536 30.343C118.198 30.343 118.56 29.9788 118.56 29.3145C118.56 28.6502 118.198 28.2859 117.536 28.2859H110.514C110.514 28.2859 110.493 28.2859 110.471 28.2859C110.471 28.2859 110.45 28.2859 110.429 28.2859H55.4706C54.809 28.2859 54.4462 28.6502 54.4462 29.3145C54.4462 29.9788 54.809 30.343 55.4706 30.343H110.429C110.429 30.343 110.45 30.343 110.471 30.343C110.471 30.343 110.493 30.343 110.514 30.343H117.536Z" fill="currentColor"/>
<path d="M119.564 31.1146H112.542C111.88 31.1146 111.517 31.4789 111.517 32.1432C111.517 32.8075 111.88 33.1718 112.542 33.1718H119.564C120.225 33.1718 120.588 32.8075 120.588 32.1432C120.588 31.4789 120.225 31.1146 119.564 31.1146Z" fill="currentColor"/>
<path d="M119.564 33.9428H112.542C111.88 33.9428 111.517 34.3071 111.517 34.9714C111.517 35.6357 111.88 36 112.542 36H119.564C120.225 36 120.588 35.6357 120.588 34.9714C120.588 34.3071 120.225 33.9428 119.564 33.9428Z" fill="currentColor"/>
<path d="M144.578 2.82849H123.96C123.299 2.82849 122.936 3.19278 122.936 3.85706C122.936 4.52135 123.299 4.88563 123.96 4.88563H144.578C145.239 4.88563 145.602 4.52135 145.602 3.85706C145.602 3.19278 145.239 2.82849 144.578 2.82849Z" fill="currentColor"/>
<path d="M144.578 7.71435C145.239 7.71435 145.602 7.35007 145.602 6.68578C145.602 6.0215 145.239 5.65721 144.578 5.65721H111.688C111.027 5.65721 110.664 6.0215 110.664 6.68578C110.664 7.35007 111.027 7.71435 111.688 7.71435H144.578Z" fill="currentColor"/>
<path d="M126.137 10.5431H133.266C133.928 10.5431 134.29 10.1788 134.29 9.5145C134.29 8.85022 133.928 8.48593 133.266 8.48593H126.137C125.476 8.48593 125.113 8.85022 125.113 9.5145C125.113 10.1788 125.476 10.5431 126.137 10.5431Z" fill="currentColor"/>
<path d="M126.137 13.3718H133.266C133.928 13.3718 134.29 13.0075 134.29 12.3432C134.29 11.6789 133.928 11.3147 133.266 11.3147H126.137C125.476 11.3147 125.113 11.6789 125.113 12.3432C125.113 13.0075 125.476 13.3718 126.137 13.3718Z" fill="currentColor"/>
<path d="M133.757 14.1428H126.628C125.967 14.1428 125.604 14.5071 125.604 15.1714C125.604 15.8357 125.967 16.2 126.628 16.2H133.757C134.418 16.2 134.781 15.8357 134.781 15.1714C134.781 14.5071 134.418 14.1428 133.757 14.1428Z" fill="currentColor"/>
<path d="M126.137 19.0287H133.266C133.928 19.0287 134.29 18.6644 134.29 18.0001C134.29 17.3358 133.928 16.9716 133.266 16.9716H126.137C125.476 16.9716 125.113 17.3358 125.113 18.0001C125.113 18.6644 125.476 19.0287 126.137 19.0287Z" fill="currentColor"/>
<path d="M132.946 21.8574C133.607 21.8574 133.97 21.4931 133.97 20.8289C133.97 20.1646 133.607 19.8003 132.946 19.8003H125.817C125.155 19.8003 124.793 20.1646 124.793 20.8289C124.793 21.4931 125.155 21.8574 125.817 21.8574H132.946Z" fill="currentColor"/>
<path d="M133.266 22.629H126.137C125.476 22.629 125.113 22.9933 125.113 23.6576C125.113 24.3219 125.476 24.6861 126.137 24.6861H133.266C133.928 24.6861 134.29 24.3219 134.29 23.6576C134.29 22.9933 133.928 22.629 133.266 22.629Z" fill="currentColor"/>
<path d="M133.266 25.4572H126.137C125.476 25.4572 125.113 25.8215 125.113 26.4858C125.113 27.1501 125.476 27.5143 126.137 27.5143H133.266C133.928 27.5143 134.29 27.1501 134.29 26.4858C134.29 25.8215 133.928 25.4572 133.266 25.4572Z" fill="currentColor"/>
<path d="M133.736 28.2859H126.137C125.476 28.2859 125.113 28.6502 125.113 29.3145C125.113 29.9788 125.476 30.343 126.137 30.343H133.736C134.397 30.343 134.76 29.9788 134.76 29.3145C134.76 28.6502 134.397 28.2859 133.736 28.2859Z" fill="currentColor"/>
<path d="M133.266 31.1146H126.137C125.476 31.1146 125.113 31.4789 125.113 32.1432C125.113 32.8075 125.476 33.1718 126.137 33.1718H133.266C133.928 33.1718 134.29 32.8075 134.29 32.1432C134.29 31.4789 133.928 31.1146 133.266 31.1146Z" fill="currentColor"/>
<path d="M133.266 33.9428H126.137C125.476 33.9428 125.113 34.3071 125.113 34.9714C125.113 35.6357 125.476 36 126.137 36H133.266C133.928 36 134.29 35.6357 134.29 34.9714C134.29 34.3071 133.928 33.9428 133.266 33.9428Z" fill="currentColor"/>
<path d="M147.352 9.5145C147.352 8.85022 146.989 8.48593 146.328 8.48593H138.281C137.62 8.48593 137.257 8.85022 137.257 9.5145C137.257 10.1788 137.62 10.5431 138.281 10.5431H146.328C146.989 10.5431 147.352 10.1788 147.352 9.5145Z" fill="currentColor"/>
<path d="M146.776 13.3718C147.437 13.3718 147.8 13.0075 147.8 12.3432C147.8 11.6789 147.437 11.3147 146.776 11.3147H140.202C139.541 11.3147 139.178 11.6789 139.178 12.3432C139.178 13.0075 139.541 13.3718 140.202 13.3718H146.776Z" fill="currentColor"/>
<path d="M149.38 15.1714C149.38 14.5071 149.017 14.1428 148.355 14.1428H140.565C139.903 14.1428 139.54 14.5071 139.54 15.1714C139.54 15.8357 139.903 16.2 140.565 16.2H148.355C149.017 16.2 149.38 15.8357 149.38 15.1714Z" fill="currentColor"/>
<path d="M159.774 16.9716H143.489C142.827 16.9716 142.465 17.3358 142.465 18.0001C142.465 18.6644 142.827 19.0287 143.489 19.0287H159.774C160.435 19.0287 160.798 18.6644 160.798 18.0001C160.798 17.3358 160.435 16.9716 159.774 16.9716Z" fill="currentColor"/>
<path d="M158.088 19.8003H143.959C143.297 19.8003 142.934 20.1646 142.934 20.8289C142.934 21.4931 143.297 21.8574 143.959 21.8574H158.088C158.749 21.8574 159.112 21.4931 159.112 20.8289C159.112 20.1646 158.749 19.8003 158.088 19.8003Z" fill="currentColor"/>
<path d="M156.402 22.629H145.645C144.983 22.629 144.62 22.9933 144.62 23.6576C144.62 24.3219 144.983 24.6861 145.645 24.6861H156.402C157.063 24.6861 157.426 24.3219 157.426 23.6576C157.426 22.9933 157.063 22.629 156.402 22.629Z" fill="currentColor"/>
<path d="M155.676 26.4858C155.676 25.8215 155.313 25.4572 154.652 25.4572H147.374C146.712 25.4572 146.349 25.8215 146.349 26.4858C146.349 27.1501 146.712 27.5143 147.374 27.5143H154.652C155.313 27.5143 155.676 27.1501 155.676 26.4858Z" fill="currentColor"/>
<path d="M153.67 28.2859H147.48C146.819 28.2859 146.456 28.6502 146.456 29.3145C146.456 29.9788 146.819 30.343 147.48 30.343H153.67C154.332 30.343 154.694 29.9788 154.694 29.3145C154.694 28.6502 154.332 28.2859 153.67 28.2859Z" fill="currentColor"/>
<path d="M155.014 31.1146H147.95C147.288 31.1146 146.925 31.4789 146.925 32.1432C146.925 32.8075 147.288 33.1718 147.95 33.1718H155.014C155.676 33.1718 156.039 32.8075 156.039 32.1432C156.039 31.4789 155.676 31.1146 155.014 31.1146Z" fill="currentColor"/>
<path d="M154.545 33.9428H147.48C146.819 33.9428 146.456 34.3071 146.456 34.9714C146.456 35.6357 146.819 36 147.48 36H154.545C155.207 36 155.569 35.6357 155.569 34.9714C155.569 34.3071 155.207 33.9428 154.545 33.9428Z" fill="currentColor"/>
<path d="M161.183 14.1428H154.289C153.627 14.1428 153.264 14.5071 153.264 15.1714C153.264 15.8357 153.627 16.2 154.289 16.2L161.183 16.2C161.844 16.2 162.207 15.8357 162.207 15.1714C162.207 14.5071 161.844 14.1428 161.183 14.1428Z" fill="currentColor"/>
<path d="M163.167 11.3147H155.804C155.142 11.3147 154.78 11.6789 154.78 12.3432C154.78 13.0075 155.142 13.3718 155.804 13.3718H163.167C163.829 13.3718 164.192 13.0075 164.192 12.3432C164.192 11.6789 163.829 11.3147 163.167 11.3147Z" fill="currentColor"/>
<path d="M162.25 8.48593H156.914C156.252 8.48593 155.889 8.85022 155.889 9.5145C155.889 10.1788 156.252 10.5431 156.914 10.5431H162.25C162.911 10.5431 163.274 10.1788 163.274 9.5145C163.274 8.85022 162.911 8.48593 162.25 8.48593Z" fill="currentColor"/>
<path d="M167.009 5.65721H158.963C158.301 5.65721 157.938 6.0215 157.938 6.68578C157.938 7.35007 158.301 7.71435 158.963 7.71435H167.009C167.671 7.71435 168.033 7.35007 168.033 6.68578C168.033 6.0215 167.671 5.65721 167.009 5.65721Z" fill="currentColor"/>
<path d="M167.82 2.82849H160.073C159.411 2.82849 159.048 3.19278 159.048 3.85706C159.048 4.52135 159.411 4.88563 160.073 4.88563H167.82C168.482 4.88563 168.845 4.52135 168.845 3.85706C168.845 3.19278 168.482 2.82849 167.82 2.82849Z" fill="currentColor"/>
<path d="M168.653 0.000305176H161.78C161.118 0.000305176 160.756 0.364591 160.756 1.02888C160.756 1.69316 161.118 2.05745 161.78 2.05745H168.653C169.314 2.05745 169.677 1.69316 169.677 1.02888C169.677 0.364591 169.314 0.000305176 168.653 0.000305176Z" fill="currentColor"/>
</svg>
